/* XPM */
static char *blursk_xmms_logo_xpm[] = {
/* width height num_colors chars_per_pixel */
"   128    64      13            1",
/* colors */
"0 c #000000",
"1 c #111111",
"2 c #222222",
"3 c #333333",
"4 c #444444",
"5 c #555555",
"6 c #666666",
"7 c #777777",
"8 c #888888",
"9 c #999999",
"a c #aaaaaa",
"b c #bbbbbb",
"c c #cccccc",
/* pixels */
"22225422222222222222322222221124242221114343213222222342322222111141232321233444444443222223431211222223353233341134222222222222",
"54323342222222222222322222312113242221124221113222222332322223212143541334353322222334432221333111222223233232231134222222222222",
"04423232222222222222322222321213242222114123323222222223222213123564321334444112111222234322213311222223122213243112222222222222",
"12233322222222222222322223431124242223223213332222222123222223244452323521233542111222222343211331222222221322243122222222222222",
"44455542222222222222322224334433242223343323232332222232222224523244465444332135311222212223321132222222222231231222222222222222",
"21123422322222222222322224343323242222242232122332222222222244224232321312242222442222222222332223312222222222131222222222222222",
"11233423433334122222322224233323242233443121222332222232222431343143111311132342134222222221124333332232222213131222222222222222",
"21134332233354322222322224334423242233432212223222222332224224421342211311141123323422222222211322233232222222321222222222222222",
"22234511136433432211322224332134444423434333433222221112331223313334444543242222222143112222222243113222222211422222222222222222",
"44455533236345342122212224331132232332113232212112321111333334422355554446653222224245212222222224211322222221332222222222222222",
"33354633345655654454555555345454444443444533333222321123224234335532132222356532122434422222222222311332222212331122222222222222",
"11131431233434311123322224331113222131112311113112221134124313354211222211222552122431432222222222331332222223233122222222222222",
"34453554544454333234422224331113222241212111114121211243333422432112113222222234224244342222222222132333223222238222721222222222",
"44353233413343222123312224332123222241112111223222212332242344323111122222222213423244333222232222213334222222238122832332222222",
"11443242432343221114322224231233222241122111223232222434443352122222321212222222342343434223232222122322322222237142732323122222",
"22363332434333323224312224443214222241123211222441224243553521112323321222222222234245342323422121222242232222138282732322322222",
"12355223224544444555712789898778676442124332113331244144225312111233221322222222223315441331211121322133233222138281832232322222",
"2146513311332222236888a779778779888662223233213322253344244312111223222322222222212323522233111112231123213322230171741232332222",
"12453234444555456678777778777777888777533111213322343423552321111332222322222222123144522242211122311213322332237272832222322222",
"12452423324355678677777777788887866678802532123211332422432222113311222322222212222264332232321132121112321133238484973238a72222",
"12354434335456778877777777777778877767788702654222312222311213113112222322222222322344232223231222223444677756aaba88ba727aa92222",
"221422322344677777770777777677777787775556776966654331232232223211122223222222233335256777663226648999989aa96a98a8899a92998a3222",
"3335344453577776705766444444556777778777533455578777543323333233345663267226983444546abaaa795269489776657a637932749a8aa4a77a4222",
"222423232477776777743632333456677877777843322134577656663437899a7aaab839835aba645576aba9977a94a85a9646669a669a99b9aa7ab7a6694222",
"2224423347777688803455566777777777777788887776759a744899647aaaaaabbaaa7a859bab745688ba76775aa9a66a9889769a659bbab9aa69b7a5694222",
"2224223576777877789877789778a777b9a967789ba997a79a93489976aa8876aa779b8a67bb8a745788bb9a9759bb875999a9968965997696aa68b6a3595222",
"222423368667a86779ba867bb969b767b8b957779ba758967aa4496866a84445b9369b8b68b98a846897aabbb977ba4755777aa59867a64506b968b892495222",
"2224236a8759b6577bbb968bba69b657b8b9567659a4398768a5585956aaaaa8a8349b8a5ab68a8445878999b877b83676664a87a858ba9ab7a977ba94496222",
"2224324a878b94567a9aa69aab69a658c8b856775983388976a5683763aaaba8b734aa8a6b947b9445566679a668b744799aaa78a767aaaaa797649755354222",
"22242239966964568a8aa7a99b7a9557a9b745785a84498966a6784775965666a537b8999b536b934558aaab9458a5337aaab741654533225533434346322222",
"22242328aaa764569a7aa7a98a7a8659a9a74366598459785495884567966887b99ab699aa345a933459aaaa5448844576567546546656666644666326422222",
"22243237aa967566a97aa8b89a8a875999a75466587569774367873668999aa8aaaa74a9a8344984456777674558655689657668766777766644576424522222",
"22243239bba57656b97ab8b88a8b965a88bb899768658a75338a963786aaaba88887757776454775556665655346444556666656666555433322332211122222",
"222422597a945644a76999a6697989995388aa945744676533354443555544545454445544444533444333233233435654356556555433222111221132212222",
"22242398579625459547898469578985345576533433443233223332233343344334343333333322122222322343123333234454445544434445555552122222",
"22243795348722247534653234434334333333223322333332222212222212221223233344445455566555666677778866566676655545545545544232222222",
"22244552343222221334222222321662233333333333333222223245455544555555454443334576067654555445554354442153111121134343522212222222",
"22222242223222332343334443435653332332333111121121444445565555565566665666654444221111233112122211222222222222157562822222222222",
"22222345444444653212112444443434453443434311143234333344454331221212322344344455422222223432332222222222222222256563723322222222",
"22222212234553466542123666554554444434421234444456533332221122222222221222222232111112232234343222222222222222255562723322222222",
"22222211324545545555545665644455444454332344444455443222211111222221112322222232112222232114133442222222222222256563822322222222",
"22221221223454564456776564655444445454335444542233212222213322222321132432123322233312332123242232222222222222247562723322222222",
"22222211321234566454656556555444445343444443131122221132211222222222223312222223222222231133322132222222222222257552823322222222",
"22222211221332354555556546554434333443431112121122222222211122222222221212222212122222232142322231222222222222246572833222222222",
"22222211312212123555575665465555454553211111122222122223211123222222222221222212212222221221322232222222222222245572824222222222",
"22222211312123122324454566565566543321222212222112222222211122222221221221122212212221331222322232222222222222257572822222222222",
"22222211321312212112132333432222232222222222222112222222222123333322111121211111211111222222212212222222222222256472721222222222",
"22222211221231222112122212112222223222222222222112222222222124333332323433432322112333322213212321222222222222246452612222222222",
"22222211211132121211322221122222222222222222222122312222322212222222122232333333343334432213222311222222222222234472622222222222",
"22222232212312112221122222222222222222222222222221312222322222322222321221231211232223333333333422322322222222221462122222222222",
"22222222311233323323222222222222222222222222222211122222122123222223212232221111323332222121222211222333312222222551222222222222",
"22222232211122333323222222222222222222222222222212122222222122122222111223112112113432221221132111222212332122222331222222222222",
"22222223332212111211112222222222222222222222222211112222222131122231112231121122213342221121223111222222233222222222222222222222",
"11111121222322122122122222111212222222222221221222212221122432211222211321222121223433322211122221111322122231222112222112112222",
"11111444224333224442122223553224542234241235234244533211124554332555122334553333251336544211145522241131224223242161234432445322",
"111227a825a27817988212223a8862698a626929329a85917a8a431114a89a318988332327aa63875b23a88642111689924a112219a8134aa2a21a88526a9522",
"111132a325a898179782122238887296279269293296a6926919721126a22a61a8002212218712898a32a88622111698724a21125a4a325896a11a8841296222",
"433242a334a17826a9921222399a725a9a524aa921967a816aaa32212399a944a4212223218712874a22aaa7323220412328a962971881596a9229a952196222",
"23312222444222343421122222222112222222322322222123332113133111245422333332134542212323422445444433312122321222233322122222232222",
"25225444545212344242222222211212222222222121121122441123423312234566545544554431213535222244534445455312331122242522113321123222",
"24224322455221344335222222222212222222222222222222352124432331231245666664331342233455311252244222122453232121234242222312122222",
"23224211334223244343222222222222222222222222222222434233243134211142245431322353431553412443223432112224324112233343223322222222",
"21223211413424224342222222222222222222222222222222424342224323321255543411231134223532333434222244311212443222232434213322222222",
"22223211423334124322122222222222222222222222222223322541212441133244223321222343144432144224222213341123244322232334313322222222"
};
